<?xml version="1.0" encoding="utf-8"?>
<!-- Generator: Adobe Illustrator 19.1.0, SVG Export Plug-In . SVG Version: 6.00 Build 0)  -->
<svg version="1.1" xmlns="http://www.w3.org/2000/svg" xmlns:xlink="http://www.w3.org/1999/xlink" x="0px" y="0px"
	 viewBox="0 0 407.3 151.3" style="enable-background:new 0 0 407.3 151.3;" xml:space="preserve">
<style type="text/css">
	.st0{display:none;}
	.st1{display:inline;}
	.st2{fill:#FFFFFF;}
	.st3{fill:#54C4C4;}
	.st4{fill:url(#SVGID_1_);}
	.st5{opacity:0.9;fill:none;stroke:#FFFFFF;stroke-width:4;stroke-miterlimit:10;}
	.st6{opacity:0.75;fill:none;stroke:#FFFFFF;stroke-width:4;stroke-miterlimit:10;}
	.st7{opacity:0.5;fill:none;stroke:#FFFFFF;stroke-width:4;stroke-miterlimit:10;}
	.st8{opacity:0.25;fill:none;stroke:#FFFFFF;stroke-width:4;stroke-miterlimit:10;}
	.st9{fill:url(#SVGID_2_);}
	.st10{opacity:0.9;fill:#FFFFFF;}
	.st11{opacity:0.75;fill:#FFFFFF;}
	.st12{opacity:0.5;fill:#FFFFFF;}
	.st13{opacity:0.25;fill:#FFFFFF;}
	.st14{fill:url(#SVGID_3_);}
	.st15{fill:url(#SVGID_4_);}
	.st16{opacity:5.000000e-02;}
	.st17{clip-path:url(#SVGID_6_);}
	.st18{clip-path:url(#SVGID_8_);}
	.st19{clip-path:url(#SVGID_10_);}
	.st20{clip-path:url(#SVGID_12_);}
	.st21{fill:url(#SVGID_13_);}
	.st22{opacity:0.2;}
	.st23{clip-path:url(#SVGID_15_);}
	.st24{clip-path:url(#SVGID_17_);}
	.st25{clip-path:url(#SVGID_19_);}
	.st26{fill:url(#SVGID_20_);}
	.st27{opacity:0.3;}
	.st28{clip-path:url(#SVGID_22_);}
	.st29{clip-path:url(#SVGID_24_);}
	.st30{clip-path:url(#SVGID_26_);}
	.st31{clip-path:url(#SVGID_28_);}
	.st32{fill:#515E66;}
	.st33{clip-path:url(#SVGID_30_);}
	.st34{clip-path:url(#SVGID_32_);}
	.st35{clip-path:url(#SVGID_34_);}
	.st36{clip-path:url(#SVGID_36_);}
	.st37{fill:#DEDEDD;}
	.st38{opacity:8.000000e-02;}
	.st39{clip-path:url(#SVGID_38_);}
	.st40{clip-path:url(#SVGID_40_);}
	.st41{clip-path:url(#SVGID_42_);}
	.st42{clip-path:url(#SVGID_44_);}
	.st43{clip-path:url(#SVGID_46_);}
	.st44{clip-path:url(#SVGID_48_);}
	.st45{clip-path:url(#SVGID_50_);}
	.st46{clip-path:url(#SVGID_52_);}
</style>
<g id="Layer_1">
</g>
<g id="Layer_3">
</g>
<g id="Layer_2">
	<g>
		<g>
			<g>
				<path class="st2" d="M0,6.9h14.9v63.3c0,13.5,8.7,20.8,20,20.8c11.3,0,20-7.3,20-20.8V6.9h14.9v64.9c0,20.4-15.4,34-34.9,34
					C15.4,105.8,0,92.2,0,71.8V6.9z"/>
				<path class="st2" d="M203,20.8h-26.6V7.7h68.1v13.1h-26.6V105H203V20.8z"/>
				<path class="st2" d="M276.3,98.8H276c-2.9,4.8-7.7,7-17.1,7c-15.4,0-24.5-9.2-24.5-21.2c0-11.1,7.7-20.5,22.5-20.5h19.3v-7.2
					c0-6.6-4.2-8.9-14.2-8.9c-7.2,0-10.7,1.4-13.1,5.3L238,45c5.3-7.4,13-10.1,23.4-10.1c17.1,0,28.8,5.7,28.8,22.8V105h-13.9V98.8z
					 M276.3,75.6h-16.7c-8.2,0-12,3.3-12,8.3c0,4.6,3.7,8.7,13.1,8.7c11.6,0,15.6-1.2,15.6-12V75.6z"/>
				<path class="st2" d="M308.3,7.7h13.9v79.4c0,3.1,1.8,4.8,5.2,4.8h4.8V105H326c-10.1,0-17.8-4.4-17.8-16.8V7.7z"/>
				<path class="st2" d="M343.5,7.7h13.9v60.5h0.3l26.6-32.5h16.7l-23.9,27.1l27.2,42.2h-17.5l-18.4-32.4L357.5,85v20h-13.9V7.7z"/>
			</g>
			<g>
				<g class="st0">
					<g class="st1">
						<path class="st2" d="M118.8,22.8c-0.9,0.9-2.4,0.9-3.3,0l-9.4-9.4c-0.9-0.9-0.9-2.4,0-3.3l9.4-9.4c0.9-0.9,2.4-0.9,3.3,0
							l9.4,9.4c0.9,0.9,0.9,2.4,0,3.3L118.8,22.8z"/>
					</g>
					<g class="st1">
						<path class="st2" d="M70.9,27.4c0,0.2,0,0.4,0,0.6V27.4z"/>
						<path class="st2" d="M84,106.4c0.4,0,0.7,0,1,0H84z"/>
						<path class="st2" d="M147.8,14.3c0,0,0.1-0.1,0.1-0.1C147.9,14.3,147.9,14.3,147.8,14.3z"/>
						<path class="st2" d="M86,106.3c-0.1,0-0.3,0.1-0.5,0.1C85.7,106.4,85.8,106.4,86,106.3z"/>
						<path class="st2" d="M71,28.6c0,0.1,0,0.1,0,0.1C71,28.7,71,28.7,71,28.6z"/>
						<path class="st2" d="M70.9,92.3c0,0.3,0,0.6,0,1V92.3z"/>
						<path class="st2" d="M148.2,106.3c0.2,0.1,0.5,0.1,0.8,0.2C148.7,106.4,148.5,106.4,148.2,106.3z"/>
						<path class="st2" d="M87,105.8c-0.2,0.2-0.4,0.3-0.6,0.4C86.6,106.1,86.8,106,87,105.8z"/>
						<path class="st2" d="M163.5,92.1v1.2C163.5,92.9,163.5,92.5,163.5,92.1z"/>
						<path class="st2" d="M150.4,106.4h-1.2C149.6,106.5,149.9,106.4,150.4,106.4z"/>
						<path class="st2" d="M146.7,104.2V92c0-1.3,1-2.3,2.3-2.3h12.1c0.9,0,1.8,0.6,2.1,1.4c-0.1-0.3-0.3-0.5-0.5-0.8l-28.5-28.5
							c-0.9-0.9-0.9-2.4,0-3.3l28.3-28.3c0.1-0.1,0.1-0.1,0.2-0.2c-0.4,0.4-0.9,0.6-1.5,0.6H149c-1.3,0-2.3-1-2.3-2.3V16.2
							c0-0.6,0.2-1.1,0.6-1.6c0,0-0.1,0.1-0.1,0.1l-28.4,28.4c-0.9,0.9-2.4,0.9-3.3,0L87.1,14.8c0,0-0.1,0-0.1-0.1
							c0.4,0.4,0.6,0.9,0.6,1.5l0,12.1c0,1.3-1,2.3-2.3,2.3H73.2c-0.6,0-1.1-0.2-1.5-0.6c0,0,0,0,0,0.1l28.4,28.5
							c0.9,0.9,0.9,2.4,0,3.3L71.7,90.3c-0.3,0.3-0.4,0.5-0.5,0.8c0.4-0.8,1.2-1.4,2.1-1.4h12.1c1.3,0,2.3,1,2.3,2.3l0,12.1
							c0,0.6-0.3,1.2-0.7,1.6c0,0,0.1,0,0.1-0.1l28.4-28.4c0.9-0.9,2.4-0.9,3.3,0l28.5,28.5c0.3,0.3,0.5,0.4,0.8,0.5
							C147.3,105.9,146.7,105.1,146.7,104.2z"/>
						<g>
							<path class="st2" d="M118.8,22.8c-0.9,0.9-2.4,0.9-3.3,0l-9.4-9.4c-0.9-0.9-0.9-2.4,0-3.3l9.4-9.4c0.9-0.9,2.4-0.9,3.3,0
								l9.4,9.4c0.9,0.9,0.9,2.4,0,3.3L118.8,22.8z"/>
						</g>
						<path class="st2" d="M146.7,104.2V92c0-1.3,1-2.3,2.3-2.3h12.1c0.9,0,1.8,0.6,2.1,1.4c-0.1-0.3-0.3-0.5-0.5-0.8l-28.5-28.5
							c-0.9-0.9-0.9-2.4,0-3.3l28.3-28.3c0.1-0.1,0.1-0.1,0.2-0.2c-0.4,0.4-0.9,0.6-1.5,0.6H149c-1.3,0-2.3-1-2.3-2.3V16.2
							c0-0.6,0.2-1.1,0.6-1.6c0,0-0.1,0.1-0.1,0.1l-28.4,28.4c-0.9,0.9-2.4,0.9-3.3,0L87.1,14.8c0,0-0.1,0-0.1-0.1
							c0.4,0.4,0.6,0.9,0.6,1.5l0,12.1c0,1.3-1,2.3-2.3,2.3H73.2c-0.6,0-1.1-0.2-1.5-0.6c0,0,0,0,0,0.1l28.4,28.5
							c0.9,0.9,0.9,2.4,0,3.3L71.7,90.3c-0.3,0.3-0.4,0.5-0.5,0.8c0.4-0.8,1.2-1.4,2.1-1.4h12.1c1.3,0,2.3,1,2.3,2.3l0,12.1
							c0,0.6-0.3,1.2-0.7,1.6c0,0,0.1,0,0.1-0.1l28.4-28.4c0.9-0.9,2.4-0.9,3.3,0l28.5,28.5c0.3,0.3,0.5,0.4,0.8,0.5
							C147.3,105.9,146.7,105.1,146.7,104.2z"/>
						<path class="st2" d="M163.3,91.1c0.1,0.3,0.2,0.6,0.2,0.9C163.4,91.7,163.4,91.4,163.3,91.1z"/>
						<path class="st2" d="M71.1,91.3C71,91.5,71,91.7,71,91.9C71,91.7,71,91.5,71.1,91.3z"/>
					</g>
				</g>
			</g>
		</g>
		<g>
			<path class="st2" d="M243.7,134.8c0.9-1.3,1.9-2.8,1.9-4.5c0-1.8-1.5-3.2-3.4-3.2c-2.2,0-3.9,1.1-4.1,4h-2.9
				c0.1-4,2.8-6.7,6.8-6.7c3.4,0,6.5,2.1,6.5,5.9c0,1.5-0.4,2.9-1.2,4l-7.4,11.2h8.5v2.7h-13.6L243.7,134.8z"/>
			<path class="st2" d="M263.9,138.5c0-2.5-1-4.7-3.9-4.7c-2.7,0-4.3,1.8-4.3,5v9.4h-2.9v-16.7h2.9v2h0.1c0.9-1.5,2.7-2.3,4.6-2.3
				c3.2,0,6.5,1.8,6.5,6.3v10.8h-2.9V138.5z"/>
			<path class="st2" d="M285.7,123.8h2.9v24.4h-2.9v-2.6h-0.1c-1.2,1.7-3.3,3-6.2,3c-4.7,0-8.8-3.7-8.8-8.9c0-4.8,4-8.6,8.7-8.6
				c2.5,0,5,1,6.4,3h0.1V123.8z M279.8,133.8c-3.9,0-6.1,3.1-6.1,5.9c0,3.9,3,6.2,6,6.2c3.3,0,6-2.7,6-6
				C285.7,136.5,282.9,133.8,279.8,133.8z"/>
			<path class="st2" d="M301.8,123.8h12.6v2.9h-9.5v7.7h9.5v2.9h-9.5v8h9.5v2.9h-12.6V123.8z"/>
			<path class="st2" d="M332.7,123.8h2.9v24.4h-2.9v-2.6h-0.1c-1.2,1.7-3.3,3-6.2,3c-4.7,0-8.8-3.7-8.8-8.9c0-4.8,4-8.6,8.7-8.6
				c2.5,0,5,1,6.4,3h0.1V123.8z M326.8,133.8c-3.9,0-6.1,3.1-6.1,5.9c0,3.9,3,6.2,6,6.2c3.3,0,6-2.7,6-6
				C332.7,136.5,330,133.8,326.8,133.8z"/>
			<path class="st2" d="M341.9,124.2c1.1,0,2,0.9,2,2s-0.9,2-2,2c-1.1,0-2-0.9-2-2S340.8,124.2,341.9,124.2z M340.4,131.5h2.9v16.7
				h-2.9V131.5z"/>
			<path class="st2" d="M348.7,127.5h2.9v4h2.7v2.5h-2.7v10.3c0,0.9,0.3,1.2,1.4,1.2h1.3v2.7c-0.4,0-1.1,0-1.8,0c-3,0-3.9-1-3.9-3.6
				v-10.6h-2.3v-2.5h2.3V127.5z"/>
			<path class="st2" d="M359.1,124.2c1.1,0,2,0.9,2,2s-0.9,2-2,2c-1.1,0-2-0.9-2-2S358,124.2,359.1,124.2z M357.7,131.5h2.9v16.7
				h-2.9V131.5z"/>
			<path class="st2" d="M374,131.1c5.3,0,9.1,4,9.1,8.8c0,4.8-3.6,8.7-9.1,8.7c-5.5,0-9.1-4-9.1-8.7
				C364.9,135.2,368.7,131.1,374,131.1z M368,139.9c0,3.2,2.8,6,6,6c3.2,0,6-2.8,6-6c0-3.5-2.8-6.1-6-6.1
				C370.8,133.8,368,136.4,368,139.9z"/>
			<path class="st2" d="M398.3,138.5c0-2.5-1-4.7-3.9-4.7c-2.7,0-4.3,1.8-4.3,5v9.4h-2.9v-16.7h2.9v2h0.1c0.9-1.5,2.7-2.3,4.6-2.3
				c3.2,0,6.5,1.8,6.5,6.3v10.8h-2.9V138.5z"/>
		</g>
		<g>
			<path class="st2" d="M93.5,18.4H82.2c-1.2,0-2.1,1-2.1,2.1v11.3c0,1.2,1,2.1,2.1,2.1h11.3c1.2,0,2.1-1,2.1-2.1l0-11.3
				C95.7,19.4,94.7,18.4,93.5,18.4z"/>
			<path class="st2" d="M164.1,18.4h-11.3c-1.2,0-2.1,1-2.1,2.1v11.3c0,1.2,1,2.1,2.1,2.1h11.3c1.2,0,2.1-1,2.1-2.1V20.5
				C166.2,19.4,165.3,18.4,164.1,18.4z"/>
			<path class="st2" d="M93.5,89H82.2c-1.2,0-2.1,1-2.1,2.1v11.3c0,1.2,1,2.1,2.1,2.1h11.3c1.2,0,2.1-1,2.1-2.1l0-11.3
				C95.7,89.9,94.7,89,93.5,89z"/>
			<path class="st2" d="M164.1,89h-11.3c-1.2,0-2.1,1-2.1,2.1v11.3c0,1.2,1,2.1,2.1,2.1h11.3c1.2,0,2.1-1,2.1-2.1V91.1
				C166.2,89.9,165.3,89,164.1,89z"/>
			<path class="st3" d="M124.7,26.6c-0.8,0.8-2.2,0.8-3.1,0l-8.8-8.8c-0.8-0.8-0.8-2.2,0-3.1l8.8-8.8c0.8-0.8,2.2-0.8,3.1,0l8.8,8.8
				c0.8,0.8,0.8,2.2,0,3.1L124.7,26.6z"/>
			<path class="st3" d="M150.7,102.4V91.1c0-1.2,1-2.1,2.1-2.1h11.3c0.9,0,1.6,0.5,2,1.3c-0.1-0.2-0.2-0.5-0.5-0.7L139.1,63
				c-0.8-0.8-0.8-2.2,0-3.1l26.3-26.3c0.1-0.1,0.1-0.1,0.2-0.2c-0.4,0.3-0.9,0.6-1.4,0.6h-11.3c-1.2,0-2.1-1-2.1-2.1V20.5
				c0-0.6,0.2-1.1,0.6-1.4c0,0-0.1,0.1-0.1,0.1l-26.4,26.4c-0.8,0.8-2.2,0.8-3.1,0L95.2,19.2c0,0,0,0-0.1-0.1
				c0.3,0.4,0.5,0.9,0.6,1.4l0,11.3c0,1.2-1,2.1-2.1,2.1H82.2c-0.6,0-1-0.2-1.4-0.6c0,0,0,0,0,0.1l26.4,26.5c0.8,0.8,0.8,2.2,0,3.1
				L80.8,89.5c-0.2,0.2-0.4,0.5-0.5,0.7c0.3-0.7,1.1-1.3,1.9-1.3h11.3c1.2,0,2.1,1,2.1,2.1l0,11.3c0,0.6-0.2,1.1-0.6,1.5
				c0,0,0.1,0,0.1-0.1l26.5-26.5c0.8-0.8,2.2-0.8,3.1,0l26.5,26.5c0.3,0.3,0.5,0.4,0.8,0.5C151.2,104,150.7,103.3,150.7,102.4z"/>
		</g>
	</g>
</g>
<g id="Layer_4">
</g>
<g id="Layer_5">
</g>
<g id="Layer_6">
</g>
<g id="Layer_7">
</g>
</svg>
