<?xml version="1.0" encoding="UTF-8"?>
<svg width="665px" height="159px" viewBox="0 0 665 159" version="1.1" xmlns="http://www.w3.org/2000/svg" xmlns:xlink="http://www.w3.org/1999/xlink">
    <!-- Generator: Sketch 52.3 (67297) - http://www.bohemiancoding.com/sketch -->
    <title>Group</title>
    <desc>Created with Sketch.</desc>
    <g id="Page-1" stroke="none" stroke-width="1" fill="none" fill-rule="evenodd">
        <g id="Artboard-8" transform="translate(-208.000000, -174.000000)">
            <g id="Group" transform="translate(208.000000, 174.000000)">
                <polygon id="Fill-391" fill="#020354" points="0.679 65.867 17.572 65.867 17.572 1.948 0.679 1.948"></polygon>
                <polygon id="Fill-392" fill="#020354" points="91.4449 1.9482 91.4449 65.8672 74.5519 65.8672 74.5519 39.5692 50.1719 24.7762 50.1719 65.8672 33.2789 65.8672 33.2789 1.9482 44.3279 1.9482 74.5519 20.3932 74.5519 1.9482"></polygon>
                <path d="M122.6776,1.9482 L160.9376,1.9482 L160.9376,16.3752 L139.5706,16.3752 L139.5706,65.8672 L122.6776,65.8672 L122.6776,1.9482 Z M101.3106,16.3752 L117.1996,16.3752 L117.1996,1.9482 L101.3106,1.9482 L101.3106,16.3752 Z" id="Fill-393" fill="#020354"></path>
                <path d="M194.178,40.208 L211.619,40.208 L211.619,26.237 L194.178,26.237 L194.178,40.208 Z M170.802,1.948 L217.555,1.948 L217.555,15.828 L187.695,15.828 L187.695,51.896 L218.468,51.896 L218.468,65.867 L170.802,65.867 L170.802,1.948 Z" id="Fill-394" fill="#020354"></path>
                <g id="Group-443">
                    <path d="M230.8885,1.9482 L259.1045,1.9482 C278.0065,1.9482 289.2375,11.4442 289.2375,27.0592 C289.2375,38.2902 285.2195,44.5912 276.9105,48.9742 L291.3375,65.8672 L268.2355,65.8672 L258.1915,52.9002 L258.1915,39.1122 L259.1045,39.1122 C267.8705,39.1122 272.3445,34.1812 272.3445,27.6982 C272.3445,21.7632 267.9615,16.7402 259.1045,16.7402 L247.3245,16.7402 L247.3245,65.8672 L230.8885,65.8672 L230.8885,1.9482 Z" id="Fill-395" fill="#020354"></path>
                    <polygon id="Fill-397" fill="#020354" points="327.6843 26.3288 319.5573 45.6868 328.3233 45.6868 333.5283 57.3748 314.7173 57.3748 311.1563 65.8668 294.2633 65.8668 322.2963 1.9478 333.5283 1.9478 361.6523 65.8668 344.2113 65.8668"></polygon>
                    <path d="M363.4812,34.7294 C363.4812,14.8234 377.8172,0.4874 398.3622,0.4874 C409.5942,0.4874 417.9032,4.2304 424.1132,10.5314 L412.5172,20.9414 C408.7722,16.8324 404.2982,14.9144 398.2722,14.9144 C387.9532,14.9144 380.3742,21.9454 380.3742,34.2724 C380.3742,46.2344 387.9532,52.7184 398.9112,52.7184 C404.4812,52.7184 409.2292,50.8004 413.0642,46.9654 L422.8352,57.3754 C416.6252,63.4924 408.5902,67.1454 398.3622,67.1454 C377.8172,67.1454 363.4812,53.5404 363.4812,34.7294" id="Fill-399" fill="#020354"></path>
                    <path d="M449.8666,1.9482 L488.1266,1.9482 L488.1266,16.3752 L466.7596,16.3752 L466.7596,65.8672 L449.8666,65.8672 L449.8666,1.9482 Z M428.4996,16.3752 L444.3886,16.3752 L444.3886,1.9482 L428.4996,1.9482 L428.4996,16.3752 Z" id="Fill-401" fill="#020354"></path>
                    <polygon id="Fill-403" fill="#020354" points="497.991 65.867 514.884 65.867 514.884 1.948 497.991 1.948"></polygon>
                    <path d="M577.5256,33.999 C577.5256,22.859 570.3126,15.827 560.7246,15.827 C551.1366,15.827 543.9226,22.859 543.9226,33.999 C543.9226,44.865 550.9536,51.714 560.7246,51.714 C570.4946,51.714 577.5256,44.865 577.5256,33.999 M527.0296,33.999 C527.0296,14.458 542.1876,0.761 560.7246,0.761 C579.2606,0.761 594.4186,14.458 594.4186,33.999 C594.4186,52.627 579.2606,66.781 560.7246,66.781 C542.1876,66.781 527.0296,52.627 527.0296,33.999" id="Fill-405" fill="#020354"></path>
                    <polygon id="Fill-406" fill="#020354" points="664.7344 1.9482 664.7344 65.8672 647.8414 65.8672 647.8414 39.5692 623.4604 24.7762 623.4604 65.8672 606.5674 65.8672 606.5674 1.9482 617.6164 1.9482 647.8414 20.3932 647.8414 1.9482"></polygon>
                    <polygon id="Fill-407" fill="#FFFFFF" points="0.6791 99.398 7.8641 99.398 7.8641 151.451 37.8601 151.451 35.1341 157.885 0.6791 157.885"></polygon>
                    <polygon id="Fill-408" fill="#FFFFFF" points="70.1034 111.7637 57.6544 140.9237 75.2834 140.9237 77.7064 146.4377 55.3144 146.4377 50.4684 157.8847 43.3664 157.8847 68.5994 99.0637 71.8574 99.0637 97.1744 157.8847 89.8214 157.8847"></polygon>
                    <path d="M117.6403,99.398 L146.9673,99.398 L146.9673,105.664 L124.8263,105.664 L124.8263,157.885 L117.6403,157.885 L117.6403,99.398 Z M95.2483,105.664 L112.6273,105.664 L112.6273,99.398 L95.2483,99.398 L95.2483,105.664 Z" id="Fill-409" fill="#FFFFFF"></path>
                    <polygon id="Fill-410" fill="#FFFFFF" points="159.328 157.885 166.513 157.885 166.513 99.398 159.328 99.398"></polygon>
                    <polygon id="Fill-411" fill="#FFFFFF" points="232.6012 99.398 232.6012 157.885 225.4152 157.885 225.4152 130.897 193.0812 109.925 193.0812 157.885 185.8952 157.885 185.8952 99.064 189.1542 99.064 225.4152 122.709 225.4152 99.398"></polygon>
                    <polygon id="Fill-412" fill="#FFFFFF" points="300.3926 111.7637 287.9436 140.9237 305.5726 140.9237 307.9956 146.4377 285.6036 146.4377 280.7576 157.8847 273.6556 157.8847 298.8886 99.0637 302.1466 99.0637 327.4636 157.8847 320.1106 157.8847"></polygon>
                    <polygon id="Fill-413" fill="#FFFFFF" points="392.3788 99.0638 392.3788 157.8848 385.1928 157.8848 385.1928 112.5988 365.4748 133.3198 346.0068 112.9338 346.0068 157.8848 338.8218 157.8848 338.8218 99.0638 342.4148 99.0638 365.6418 123.4608 388.8688 99.0638"></polygon>
                    <path d="M425.375,130.313 L443.172,130.313 L443.172,124.213 L425.375,124.213 L425.375,130.313 Z M411.672,99.398 L451.36,99.398 L451.36,105.497 L418.858,105.497 L418.858,151.702 L452.195,151.702 L452.195,157.885 L411.672,157.885 L411.672,99.398 Z" id="Fill-414" fill="#FFFFFF"></path>
                    <path d="M466.4781,99.398 L490.8761,99.398 C505.2461,99.398 515.1891,109.006 515.1891,122.292 C515.1891,133.153 507.7531,141.425 498.7291,143.681 L513.4341,157.885 L503.5751,157.885 L490.5411,145.101 L490.5411,139.169 L490.8761,139.169 C500.6511,139.169 508.0041,131.232 508.0041,122.458 C508.0041,112.683 500.8181,105.748 490.8761,105.748 L473.5801,105.748 L473.5801,157.885 L466.4781,157.885 L466.4781,99.398 Z" id="Fill-415" fill="#FFFFFF"></path>
                    <polygon id="Fill-416" fill="#FFFFFF" points="530.724 157.885 537.91 157.885 537.91 99.398 530.724 99.398"></polygon>
                    <path d="M553.2811,128.8918 C553.2811,111.2618 565.7301,98.7298 583.2761,98.7298 C593.3021,98.7298 599.7361,101.9878 605.0831,107.4188 L600.0701,112.0988 C595.8931,107.5868 590.1281,105.0798 583.1931,105.0798 C569.9911,105.0798 560.3831,114.7718 560.3831,128.7248 C560.3831,142.5948 569.9911,152.1198 583.3601,152.1198 C590.1281,152.1198 595.9761,149.6128 600.2371,145.2688 L604.6651,149.9478 C599.4021,155.3778 592.0491,158.5528 583.2761,158.5528 C565.5631,158.5528 553.2811,145.9368 553.2811,128.8918" id="Fill-417" fill="#FFFFFF"></path>
                    <polygon id="Fill-418" fill="#FFFFFF" points="637.6639 111.7637 625.2139 140.9237 642.8439 140.9237 645.2659 146.4377 622.8749 146.4377 618.0289 157.8847 610.9269 157.8847 636.1589 99.0637 639.4189 99.0637 664.7339 157.8847 657.3819 157.8847"></polygon>
                </g>
            </g>
        </g>
    </g>
</svg>